<svg xmlns="http://www.w3.org/2000/svg" xmlns:xlink="http://www.w3.org/1999/xlink" width="270" zoomAndPan="magnify" viewBox="0 0 202.5 58.499998" height="78" preserveAspectRatio="xMidYMid meet" version="1.0"><defs><g/><clipPath id="2c78aee23d"><path d="M 147.582031 0.277344 L 201.257812 0.277344 L 201.257812 57.679688 L 147.582031 57.679688 Z M 147.582031 0.277344 " clip-rule="nonzero"/></clipPath></defs><g clip-path="url(#2c78aee23d)"><path fill="#f6cd00" d="M 174.40625 10.074219 C 169.589844 10.132812 165.070312 12.050781 161.679688 15.476562 C 158.285156 18.90625 156.417969 23.449219 156.417969 28.269531 C 156.417969 33.726562 158.839844 38.847656 163.058594 42.320312 C 164.386719 43.414062 165.152344 45.039062 165.152344 46.777344 L 165.152344 51.320312 C 165.152344 54.808594 167.992188 57.644531 171.480469 57.644531 L 177.773438 57.644531 C 181.261719 57.644531 184.101562 54.808594 184.101562 51.320312 L 184.101562 46.777344 C 184.101562 45.046875 184.875 43.410156 186.226562 42.296875 C 190.507812 38.753906 192.917969 33.539062 192.832031 27.988281 C 192.679688 17.988281 184.414062 9.953125 174.40625 10.074219 Z M 177.773438 55.132812 L 171.480469 55.132812 C 169.582031 55.132812 168 53.738281 167.710938 51.921875 L 181.542969 51.921875 C 181.253906 53.742188 179.671875 55.132812 177.773438 55.132812 Z M 181.589844 49.414062 L 167.664062 49.414062 L 167.664062 48.03125 L 181.589844 48.03125 Z M 184.625 40.359375 C 183.023438 41.683594 181.992188 43.519531 181.6875 45.523438 L 167.566406 45.523438 C 167.265625 43.515625 166.242188 41.6875 164.65625 40.382812 C 161.019531 37.386719 158.933594 32.972656 158.933594 28.269531 C 158.933594 19.722656 165.886719 12.6875 174.4375 12.582031 C 174.5 12.582031 174.5625 12.582031 174.625 12.582031 C 183.167969 12.582031 190.191406 19.46875 190.324219 28.023438 C 190.394531 32.8125 188.316406 37.308594 184.625 40.359375 Z M 173.371094 6.246094 L 173.371094 1.566406 C 173.371094 0.871094 173.933594 0.308594 174.625 0.308594 C 175.320312 0.308594 175.882812 0.871094 175.882812 1.566406 L 175.882812 6.246094 C 175.882812 6.941406 175.320312 7.5 174.625 7.5 C 173.933594 7.5 173.371094 6.941406 173.371094 6.246094 Z M 183.957031 8.519531 L 186.300781 4.464844 C 186.648438 3.867188 187.417969 3.660156 188.015625 4.007812 C 188.617188 4.351562 188.824219 5.121094 188.476562 5.71875 L 186.132812 9.773438 C 185.902344 10.175781 185.480469 10.402344 185.046875 10.402344 C 184.832031 10.402344 184.617188 10.347656 184.417969 10.234375 C 183.820312 9.886719 183.613281 9.121094 183.957031 8.519531 Z M 197.304688 15.613281 L 193.246094 17.953125 C 193.050781 18.066406 192.835938 18.121094 192.621094 18.121094 C 192.1875 18.121094 191.765625 17.898438 191.53125 17.496094 C 191.183594 16.894531 191.390625 16.128906 191.992188 15.78125 L 196.046875 13.4375 C 196.648438 13.09375 197.417969 13.300781 197.765625 13.898438 C 198.109375 14.496094 197.90625 15.265625 197.304688 15.613281 Z M 201.257812 27.335938 C 201.257812 28.027344 200.695312 28.589844 200 28.589844 L 195.316406 28.589844 C 194.621094 28.589844 194.058594 28.027344 194.058594 27.335938 C 194.058594 26.640625 194.621094 26.082031 195.316406 26.082031 L 200 26.082031 C 200.695312 26.082031 201.257812 26.640625 201.257812 27.335938 Z M 160.722656 5.511719 C 160.375 4.914062 160.582031 4.144531 161.183594 3.796875 C 161.78125 3.453125 162.550781 3.65625 162.898438 4.257812 L 165.238281 8.3125 C 165.585938 8.914062 165.378906 9.679688 164.78125 10.027344 C 164.582031 10.140625 164.367188 10.195312 164.152344 10.195312 C 163.71875 10.195312 163.296875 9.972656 163.0625 9.570312 Z M 156.425781 17.761719 C 156.214844 17.761719 156 17.707031 155.800781 17.59375 L 151.742188 15.253906 C 151.144531 14.90625 150.9375 14.136719 151.285156 13.539062 C 151.628906 12.9375 152.398438 12.734375 153 13.078125 L 157.054688 15.417969 C 157.65625 15.765625 157.863281 16.535156 157.515625 17.132812 C 157.285156 17.539062 156.859375 17.761719 156.425781 17.761719 Z M 154.78125 26.921875 C 154.78125 27.613281 154.21875 28.175781 153.527344 28.175781 L 148.839844 28.175781 C 148.148438 28.175781 147.585938 27.613281 147.585938 26.921875 C 147.585938 26.226562 148.148438 25.667969 148.839844 25.667969 L 153.527344 25.667969 C 154.21875 25.667969 154.78125 26.230469 154.78125 26.921875 Z M 154.78125 26.921875 " fill-opacity="1" fill-rule="nonzero"/></g><g fill="#f6cd00" fill-opacity="1"><g transform="translate(0.972647, 38.764967)"><g><path d="M 2.203125 0 L 2.203125 -21.171875 L 6.3125 -21.171875 L 6.3125 -3.609375 L 17.109375 -3.609375 L 17.109375 0 Z M 2.203125 0 "/></g></g></g><g fill="#f6cd00" fill-opacity="1"><g transform="translate(18.387052, 38.764967)"><g><path d="M 11.1875 0.15625 C 9.488281 0.15625 8.046875 -0.125 6.859375 -0.6875 C 5.679688 -1.257812 4.726562 -2.039062 4 -3.03125 C 3.28125 -4.03125 2.75 -5.160156 2.40625 -6.421875 C 2.070312 -7.679688 1.90625 -9 1.90625 -10.375 L 1.90625 -21.171875 L 6.015625 -21.171875 L 6.015625 -10.375 C 6.015625 -9.5 6.097656 -8.648438 6.265625 -7.828125 C 6.441406 -7.003906 6.726562 -6.265625 7.125 -5.609375 C 7.519531 -4.953125 8.046875 -4.429688 8.703125 -4.046875 C 9.359375 -3.671875 10.175781 -3.484375 11.15625 -3.484375 C 12.144531 -3.484375 12.972656 -3.675781 13.640625 -4.0625 C 14.304688 -4.457031 14.832031 -4.984375 15.21875 -5.640625 C 15.601562 -6.296875 15.882812 -7.035156 16.0625 -7.859375 C 16.25 -8.679688 16.34375 -9.519531 16.34375 -10.375 L 16.34375 -21.171875 L 20.421875 -21.171875 L 20.421875 -10.375 C 20.421875 -8.925781 20.242188 -7.5625 19.890625 -6.28125 C 19.546875 -5.007812 19 -3.890625 18.25 -2.921875 C 17.507812 -1.960938 16.550781 -1.207031 15.375 -0.65625 C 14.207031 -0.113281 12.8125 0.15625 11.1875 0.15625 Z M 11.1875 0.15625 "/></g></g></g><g fill="#f6cd00" fill-opacity="1"><g transform="translate(40.751433, 38.764967)"><g><path d="M 0.890625 -3.09375 L 12.703125 -17.5625 L 1.21875 -17.5625 L 1.21875 -21.171875 L 17.59375 -21.171875 L 17.59375 -18.0625 L 6.171875 -3.609375 L 17.671875 -3.609375 L 17.671875 0 L 0.890625 0 Z M 0.890625 -3.09375 "/></g></g></g><g fill="#f6cd00" fill-opacity="1"><g transform="translate(59.448053, 38.764967)"><g/></g></g><g fill="#000000" fill-opacity="1"><g transform="translate(66.598195, 38.764967)"><g><path d="M 2.203125 0 L 2.203125 -21.171875 L 6.3125 -21.171875 L 6.3125 0 Z M 2.203125 0 "/></g></g></g><g fill="#000000" fill-opacity="1"><g transform="translate(75.126478, 38.764967)"><g><path d="M 6.3125 -13.59375 L 6.3125 0 L 2.203125 0 L 2.203125 -21.171875 L 5.484375 -21.171875 L 16.421875 -7.21875 L 16.421875 -21.140625 L 20.546875 -21.140625 L 20.546875 0 L 17.109375 0 Z M 6.3125 -13.59375 "/></g></g></g><g fill="#000000" fill-opacity="1"><g transform="translate(97.878512, 38.764967)"><g><path d="M 11 0.15625 C 9.625 0.15625 8.328125 -0.117188 7.109375 -0.671875 C 5.890625 -1.234375 4.816406 -2.003906 3.890625 -2.984375 C 2.960938 -3.972656 2.238281 -5.125 1.71875 -6.4375 C 1.207031 -7.75 0.953125 -9.171875 0.953125 -10.703125 C 0.953125 -12.148438 1.207031 -13.515625 1.71875 -14.796875 C 2.238281 -16.078125 2.96875 -17.203125 3.90625 -18.171875 C 4.84375 -19.148438 5.9375 -19.914062 7.1875 -20.46875 C 8.4375 -21.03125 9.796875 -21.3125 11.265625 -21.3125 C 13.253906 -21.3125 14.957031 -20.890625 16.375 -20.046875 C 17.800781 -19.203125 18.875 -18.082031 19.59375 -16.6875 L 16.515625 -14.421875 C 15.984375 -15.484375 15.234375 -16.289062 14.265625 -16.84375 C 13.296875 -17.394531 12.25 -17.671875 11.125 -17.671875 C 10.226562 -17.671875 9.410156 -17.484375 8.671875 -17.109375 C 7.941406 -16.734375 7.304688 -16.21875 6.765625 -15.5625 C 6.234375 -14.90625 5.820312 -14.148438 5.53125 -13.296875 C 5.238281 -12.441406 5.09375 -11.535156 5.09375 -10.578125 C 5.09375 -9.566406 5.242188 -8.632812 5.546875 -7.78125 C 5.859375 -6.925781 6.296875 -6.179688 6.859375 -5.546875 C 7.429688 -4.910156 8.09375 -4.40625 8.84375 -4.03125 C 9.601562 -3.664062 10.441406 -3.484375 11.359375 -3.484375 C 12.429688 -3.484375 13.457031 -3.757812 14.4375 -4.3125 C 15.425781 -4.875 16.347656 -5.691406 17.203125 -6.765625 L 17.203125 -2.71875 C 15.429688 -0.800781 13.363281 0.15625 11 0.15625 Z M 16.90625 -7.875 L 12.640625 -7.875 L 12.640625 -10.875 L 20.296875 -10.875 L 20.296875 0 L 16.90625 0 Z M 16.90625 -7.875 "/></g></g></g><g fill="#000000" fill-opacity="1"><g transform="translate(119.497413, 38.764967)"><g><path d="M 7.953125 -21.171875 L 12.140625 -21.171875 L 19.921875 0 L 15.6875 0 L 13.71875 -5.28125 L 6.3125 -5.28125 L 4.375 0 L 0.15625 0 Z M 12.96875 -8.171875 L 10.046875 -16.90625 L 7 -8.171875 Z M 11.359375 -22.953125 L 8.796875 -23.734375 L 10.40625 -27.28125 L 14.125 -27.28125 Z M 11.359375 -22.953125 "/></g></g></g></svg>